<svg xmlns="http://www.w3.org/2000/svg" width="48" height="48" fill="none" viewBox="0 0 48 48" id="HotMeal">
  <path fill="#00b5da" d="M5 28.0001C4.44772 28.0001 4 28.4478 4 29.0001C4 29.5524 4.44772 30.0001 5 30.0001H8C8 34.4184 11.5817 38.0001 16 38.0001H32C36.4183 38.0001 40 34.4184 40 30.0001H43C43.5523 30.0001 44 29.5524 44 29.0001C44 28.4478 43.5523 28.0001 43 28.0001H5Z" class="color333333 svgShape"></path>
  <path fill="#00b5da" fill-rule="evenodd" d="M23.1053 10.0535C23.1053 10.0535 23.1056 10.0529 24 10.5001 24.8944 10.9473 24.8947 10.9468 24.8947 10.9468L24.893 10.9502 24.8812 10.9749C24.87 10.9983 24.8526 11.0355 24.8305 11.0849 24.7861 11.184 24.7229 11.3312 24.6521 11.5153 24.5094 11.8864 24.3413 12.3927 24.2306 12.9462 23.9948 14.125 24.0825 15.1684 24.7071 15.793 26.0825 17.1684 25.9948 19.125 25.7306 20.4462 25.5913 21.1427 25.3844 21.7614 25.2146 22.2028 25.1292 22.425 25.0517 22.6058 24.9945 22.7334 24.9659 22.7972 24.9423 22.848 24.9251 22.8841L24.9044 22.9271 24.898 22.9402 24.8958 22.9445 24.895 22.9461C24.895 22.9461 24.8944 22.9473 24 22.5001 23.1056 22.0529 23.1053 22.0534 23.1053 22.0534L23.107 22.05 23.1188 22.0253C23.13 22.0019 23.1474 21.9647 23.1695 21.9153 23.2139 21.8162 23.2771 21.669 23.3479 21.4849 23.4906 21.1138 23.6587 20.6075 23.7694 20.054 24.0052 18.8752 23.9175 17.8318 23.2929 17.2072 21.9175 15.8318 22.0052 13.8752 22.2694 12.554 22.4087 11.8575 22.6156 11.2388 22.7854 10.7974 22.8708 10.5752 22.9483 10.3944 23.0055 10.2668 23.0341 10.203 23.0577 10.1523 23.0749 10.1162L23.0956 10.0731 23.102 10.0601 23.1042 10.0557 23.1053 10.0535zM24.8951 10.9459L24.8947 10.9468 24.8951 10.9459zM15.1707 12.4412C15.1707 12.4412 15.1712 12.4406 16 13.0001 16.8288 13.5596 16.8292 13.5591 16.8292 13.5591L16.83 13.5579 16.8292 13.5591 16.8169 13.5781C16.8054 13.596 16.787 13.6252 16.7632 13.6643 16.7157 13.7429 16.6475 13.8606 16.5711 14.0078 16.416 14.3066 16.2377 14.7062 16.1217 15.1358 15.8808 16.028 15.9674 16.7315 16.5952 17.1966 18.2174 18.3982 18.1308 20.1947 17.8092 21.3858 17.6439 21.9979 17.4003 22.5357 17.2039 22.914 17.1046 23.1054 17.0145 23.2612 16.9478 23.3714 16.9144 23.4266 16.8867 23.4707 16.8663 23.5024 16.8561 23.5183 16.8478 23.5311 16.8415 23.5406L16.8335 23.5526 16.8308 23.5567 16.8297 23.5583C16.8297 23.5583 16.8288 23.5596 16 23.0001 15.1712 22.4406 15.1708 22.4412 15.1708 22.4412L15.1831 22.4221C15.1946 22.4042 15.213 22.3751 15.2368 22.3359 15.2843 22.2573 15.3525 22.1397 15.4289 21.9924 15.584 21.6937 15.7623 21.294 15.8783 20.8644 16.1192 19.9722 16.0326 19.2687 15.4048 18.8037 13.7826 17.602 13.8692 15.8055 14.1908 14.6144 14.3561 14.0024 14.5997 13.4645 14.7961 13.0862 14.8954 12.8949 14.9855 12.7391 15.0522 12.6288 15.0856 12.5736 15.1133 12.5295 15.1337 12.4978 15.1439 12.482 15.1522 12.4692 15.1585 12.4596L15.1665 12.4476 15.1692 12.4435 15.1707 12.4412zM32.1707 12.4412C32.1707 12.4412 32.1712 12.4406 33 13.0001 33.8288 13.5596 33.8292 13.5591 33.8292 13.5591L33.83 13.5579 33.8292 13.5591 33.8169 13.5781C33.8054 13.596 33.787 13.6252 33.7632 13.6643 33.7157 13.7429 33.6475 13.8606 33.5711 14.0078 33.416 14.3066 33.2377 14.7062 33.1217 15.1358 32.8808 16.028 32.9674 16.7315 33.5952 17.1966 35.2174 18.3982 35.1308 20.1947 34.8092 21.3858 34.6439 21.9979 34.4003 22.5357 34.2039 22.914 34.1046 23.1054 34.0145 23.2612 33.9478 23.3714 33.9144 23.4266 33.8867 23.4707 33.8663 23.5024 33.8561 23.5183 33.8478 23.5311 33.8415 23.5406L33.8335 23.5526 33.8308 23.5567 33.8297 23.5583C33.8297 23.5583 33.8288 23.5596 33 23.0001 32.1712 22.4406 32.1708 22.4412 32.1708 22.4412L32.1831 22.4221C32.1946 22.4042 32.213 22.3751 32.2367 22.3359 32.2843 22.2573 32.3525 22.1397 32.4289 21.9924 32.584 21.6937 32.7623 21.294 32.8783 20.8644 33.1192 19.9722 33.0326 19.2687 32.4048 18.8037 30.7826 17.602 30.8692 15.8055 31.1908 14.6144 31.3561 14.0024 31.5997 13.4645 31.7961 13.0862 31.8954 12.8949 31.9855 12.7391 32.0522 12.6288 32.0856 12.5736 32.1133 12.5295 32.1337 12.4978 32.1439 12.482 32.1522 12.4692 32.1585 12.4596L32.1665 12.4476 32.1692 12.4435 32.1707 12.4412z" clip-rule="evenodd" class="color333333 svgShape"></path>
</svg>
