<svg xmlns="http://www.w3.org/2000/svg" enable-background="new 0 0 32 32" viewBox="0 0 32 32" id="Idea">
  <g id="Idea" fill="#00b5da" class="color000000 svgShape">
    <path d="M18.455 29.1h-4.91c-.497 0-.9.403-.9.9s.403.9.9.9h4.91c.497 0 .9-.403.9-.9S18.952 29.1 18.455 29.1zM16 4.662c.497 0 .9-.403.9-.9V2c0-.497-.403-.9-.9-.9S15.1 1.503 15.1 2v1.762C15.1 4.259 15.503 4.662 16 4.662zM28.815 12.909h-1.762c-.497 0-.9.403-.9.9s.403.9.9.9h1.762c.497 0 .9-.403.9-.9S29.313 12.909 28.815 12.909zM4.946 12.909H3.185c-.497 0-.9.403-.9.9s.403.9.9.9h1.762c.497 0 .9-.403.9-.9S5.443 12.909 4.946 12.909zM8.259 7.341c.176.176.406.264.637.264s.461-.088.637-.264c.352-.351.352-.921 0-1.272L8.286 4.822c-.352-.352-.922-.352-1.273 0-.352.351-.352.921 0 1.272L8.259 7.341zM23.714 4.822l-1.246 1.246c-.352.351-.352.921 0 1.272.176.176.406.264.637.264s.461-.088.637-.264l1.246-1.246c.352-.351.352-.921 0-1.272C24.636 4.471 24.065 4.471 23.714 4.822zM16 7.442c-4.525-.007-8.206 3.673-8.206 8.206 0 2.182.856 4.167 2.256 5.632.929.973 1.506 2.228 1.506 3.573v.767c0 .552.448 1 1 1H16h3.444c.552 0 1-.448 1-1v-.767c0-1.345.576-2.6 1.506-3.573 1.399-1.465 2.256-3.449 2.256-5.632C24.206 11.115 20.525 7.434 16 7.442zM15.195 12.438c-1.174.292-2.118 1.241-2.406 2.418-.101.411-.469.687-.873.687-.071 0-.144-.009-.215-.026-.483-.118-.778-.605-.66-1.088.452-1.847 1.877-3.279 3.719-3.738.482-.118.972.173 1.091.656C15.971 11.83 15.677 12.318 15.195 12.438z" fill="#00b5da" class="color000000 svgShape"></path>
  </g>
</svg>
