<svg width="500" height="500" viewBox="0 0 500 500" fill="none" xmlns="http://www.w3.org/2000/svg">
<circle cx="250" cy="250" r="250" fill="#00B5DA"/>
<path d="M368.083 233.933C357.7 220.583 342.867 213.167 326.55 213.167H155.967L153 195.367C151.517 189.433 145.583 183.5 138.167 183.5H108.5C99.6 183.5 93.6667 189.433 93.6667 198.333C93.6667 207.233 99.6 213.167 108.5 213.167H126.3L129.267 230.967L147.067 334.8L150.033 352.6C153 374.85 172.283 391.167 194.533 391.167H336.933C345.833 391.167 351.767 385.233 351.767 376.333C351.767 367.433 345.833 361.5 336.933 361.5H194.533C187.117 361.5 179.7 355.567 178.217 348.15V346.667H317.65C341.383 346.667 360.667 331.833 368.083 309.583L376.983 279.917C381.433 263.6 376.983 247.283 368.083 233.933Z" fill="white"/>
<path d="M190.083 450.5C202.372 450.5 212.333 440.538 212.333 428.25C212.333 415.962 202.372 406 190.083 406C177.795 406 167.833 415.962 167.833 428.25C167.833 440.538 177.795 450.5 190.083 450.5Z" fill="white"/>
<path d="M308.75 450.5C321.038 450.5 331 440.538 331 428.25C331 415.962 321.038 406 308.75 406C296.462 406 286.5 415.962 286.5 428.25C286.5 440.538 296.462 450.5 308.75 450.5Z" fill="white"/>
<path d="M267.841 187.934C272.804 192.467 279.327 194.907 286.047 194.744C292.766 194.58 299.163 191.827 303.9 187.059C308.861 182.106 311.591 175.509 311.591 168.5C311.591 161.491 308.861 154.894 303.9 149.941C302.893 148.93 302.096 147.73 301.554 146.41C301.012 145.091 300.736 143.677 300.741 142.25C300.741 139.336 301.87 136.597 303.909 134.559C315.861 122.606 322.441 106.69 322.441 89.75C322.441 72.81 315.861 56.8937 303.909 44.9412C299.167 40.1782 292.77 37.4287 286.051 37.2657C279.332 37.1027 272.809 39.5388 267.841 44.0663C263.02 39.7088 256.886 37.25 250.341 37.25C243.796 37.25 237.671 39.7088 232.841 44.0663C227.878 39.5332 221.356 37.0934 214.636 37.2565C207.916 37.4195 201.52 40.1729 196.783 44.9412C191.83 49.8937 189.091 56.4912 189.091 63.5C189.091 70.5087 191.821 77.1063 196.783 82.0588C198.821 84.1063 199.95 86.8275 199.95 89.7412C199.95 92.655 198.821 95.3937 196.774 97.4412C190.879 103.316 186.207 110.301 183.028 117.992C179.848 125.683 178.225 133.928 178.25 142.25C178.222 150.573 179.846 158.82 183.027 166.511C186.208 174.203 190.884 181.187 196.783 187.059C201.522 191.823 207.918 194.574 214.636 194.737C221.355 194.9 227.876 192.463 232.841 187.934C237.671 192.291 243.796 194.75 250.341 194.75C256.886 194.75 263.02 192.291 267.841 187.934ZM209.155 174.686C204.895 170.429 201.518 165.371 199.217 159.805C196.917 154.239 195.739 148.273 195.75 142.25C195.74 136.227 196.919 130.262 199.219 124.696C201.52 119.13 204.896 114.072 209.155 109.814C211.79 107.18 213.879 104.052 215.303 100.609C216.726 97.1658 217.456 93.4756 217.45 89.75C217.45 82.4787 214.685 75.2162 209.155 69.695C207.62 68.0332 206.787 65.8417 206.831 63.5797C206.876 61.3177 207.794 59.1606 209.393 57.5603C210.992 55.9599 213.149 55.0405 215.411 54.9945C217.673 54.9485 219.865 55.7797 221.528 57.3138C225.787 61.5701 229.164 66.6257 231.464 72.1905C233.765 77.7554 234.943 83.7197 234.933 89.7412C234.944 95.7654 233.765 101.733 231.465 107.3C229.165 112.868 225.787 117.927 221.528 122.186C218.893 124.82 216.805 127.949 215.383 131.392C213.961 134.835 213.233 138.525 213.241 142.25C213.232 145.975 213.959 149.666 215.381 153.109C216.803 156.552 218.892 159.681 221.528 162.314C222.343 163.124 222.99 164.088 223.432 165.15C223.873 166.212 224.1 167.35 224.1 168.5C224.1 169.65 223.873 170.788 223.432 171.85C222.99 172.912 222.343 173.876 221.528 174.686C220.716 175.5 219.751 176.145 218.69 176.585C217.628 177.025 216.49 177.252 215.341 177.252C214.192 177.252 213.054 177.025 211.993 176.585C210.931 176.145 209.967 175.5 209.155 174.686ZM291.528 57.3138C295.79 61.5701 299.169 66.6268 301.471 72.1933C303.773 77.7598 304.952 83.7263 304.941 89.75C304.941 101.501 300.47 113.244 291.536 122.186C288.899 124.819 286.809 127.947 285.385 131.39C283.962 134.833 283.233 138.524 283.241 142.25C283.232 145.975 283.959 149.666 285.381 153.109C286.803 156.552 288.892 159.681 291.528 162.314C292.343 163.124 292.99 164.088 293.431 165.15C293.873 166.212 294.1 167.35 294.1 168.5C294.1 169.65 293.873 170.788 293.431 171.85C292.99 172.912 292.343 173.876 291.528 174.686C290.716 175.5 289.751 176.145 288.69 176.585C287.628 177.025 286.49 177.252 285.341 177.252C284.192 177.252 283.054 177.025 281.993 176.585C280.931 176.145 279.967 175.5 279.155 174.686C274.895 170.429 271.518 165.371 269.217 159.805C266.917 154.239 265.739 148.273 265.75 142.25C265.74 136.227 266.919 130.262 269.219 124.696C271.52 119.13 274.896 114.072 279.155 109.814C281.79 107.18 283.879 104.052 285.303 100.609C286.726 97.1658 287.456 93.4756 287.45 89.75C287.45 82.4787 284.685 75.2162 279.155 69.695C277.62 68.0332 276.787 65.8417 276.831 63.5797C276.876 61.3177 277.794 59.1606 279.393 57.5603C280.992 55.9599 283.149 55.0405 285.411 54.9945C287.673 54.9485 289.865 55.7797 291.528 57.3138ZM244.155 174.686C239.895 170.429 236.518 165.371 234.217 159.805C231.917 154.239 230.739 148.273 230.75 142.25C230.74 136.227 231.919 130.262 234.219 124.696C236.52 119.13 239.896 114.072 244.155 109.814C246.79 107.18 248.879 104.052 250.303 100.609C251.726 97.1658 252.456 93.4756 252.45 89.75C252.45 82.4787 249.685 75.2162 244.155 69.695C242.62 68.0332 241.787 65.8417 241.831 63.5797C241.876 61.3177 242.794 59.1606 244.393 57.5603C245.992 55.9599 248.149 55.0405 250.411 54.9945C252.673 54.9485 254.865 55.7797 256.528 57.3138C260.787 61.5701 264.164 66.6257 266.464 72.1905C268.765 77.7554 269.943 83.7197 269.933 89.7412C269.944 95.7654 268.765 101.733 266.465 107.3C264.165 112.868 260.787 117.927 256.528 122.186C253.893 124.82 251.805 127.949 250.383 131.392C248.961 134.835 248.233 138.525 248.241 142.25C248.232 145.975 248.959 149.666 250.381 153.109C251.803 156.552 253.892 159.681 256.528 162.314C257.343 163.124 257.99 164.088 258.432 165.15C258.873 166.212 259.1 167.35 259.1 168.5C259.1 169.65 258.873 170.788 258.432 171.85C257.99 172.912 257.343 173.876 256.528 174.686C255.716 175.5 254.751 176.145 253.69 176.585C252.628 177.025 251.49 177.252 250.341 177.252C249.192 177.252 248.054 177.025 246.993 176.585C245.931 176.145 244.967 175.5 244.155 174.686Z" fill="white"/>
</svg>
