<svg width="500" height="500" viewBox="0 0 500 500" fill="none" xmlns="http://www.w3.org/2000/svg">
<circle cx="250" cy="250" r="250" fill="white"/>
<path d="M386.562 170.2C375.275 155.688 359.15 147.625 341.412 147.625H155.975L152.75 128.275C151.137 121.825 144.687 115.375 136.625 115.375H104.375C94.7 115.375 88.25 121.825 88.25 131.5C88.25 141.175 94.7 147.625 104.375 147.625H123.725L126.95 166.975L146.3 279.85L149.525 299.2C152.75 323.387 173.712 341.125 197.9 341.125H352.7C362.375 341.125 368.825 334.675 368.825 325C368.825 315.325 362.375 308.875 352.7 308.875H197.9C189.837 308.875 181.775 302.425 180.162 294.363V292.75H331.737C357.537 292.75 378.5 276.625 386.562 252.438L396.237 220.188C401.075 202.45 396.237 184.713 386.562 170.2Z" fill="#3A99FF"/>
<path d="M193.062 405.625C206.421 405.625 217.25 394.796 217.25 381.438C217.25 368.079 206.421 357.25 193.062 357.25C179.704 357.25 168.875 368.079 168.875 381.438C168.875 394.796 179.704 405.625 193.062 405.625Z" fill="#3A99FF"/>
<path d="M322.062 405.625C335.421 405.625 346.25 394.796 346.25 381.438C346.25 368.079 335.421 357.25 322.062 357.25C308.704 357.25 297.875 368.079 297.875 381.438C297.875 394.796 308.704 405.625 322.062 405.625Z" fill="#3A99FF"/>
</svg>
