<svg xmlns="http://www.w3.org/2000/svg" enable-background="new 0 0 24 24" viewBox="0 0 24 24" id="trolley">
  <g id="_icons" fill="#00b5da" class="color000000 svgShape">
    <path d="M20.5,6.4C19.8,5.5,18.8,5,17.7,5H6.2L6,3.8C5.9,3.4,5.5,3,5,3H3C2.4,3,2,3.4,2,4s0.4,1,1,1h1.2l0.2,1.2c0,0,0,0,0,0
			l1.2,7c0,0,0,0,0,0l0.2,1.2C6,15.9,7.3,17,8.8,17h9.6c0.6,0,1-0.4,1-1s-0.4-1-1-1H8.8c-0.5,0-1-0.4-1.1-0.9l0-0.1h9.4
			c1.6,0,2.9-1,3.4-2.5l0.6-2C21.4,8.4,21.1,7.3,20.5,6.4z" fill="#00b5da" class="color000000 svgShape"></path>
    <circle cx="8.5" cy="19.5" r="1.5" fill="#00b5da" class="color000000 svgShape"></circle>
    <circle cx="16.5" cy="19.5" r="1.5" fill="#00b5da" class="color000000 svgShape"></circle>
  </g>
</svg>
